<?xml version="1.0"?><svg xmlns="http://www.w3.org/2000/svg" width="204" height="117"><rect x="0" y="0" width="100%" height="100%" fill="rgb(49, 81, 157)" /><polyline points="17, 0, 34, 19.666666666667, 17, 39.333333333333, 0, 19.666666666667" fill="#222" fill-opacity="0.098" stroke="#000" stroke-opacity="0.02" transform="translate(-17, -19.666666666667)" /><polyline points="17, 0, 34, 19.666666666667, 17, 39.333333333333, 0, 19.666666666667" fill="#222" fill-opacity="0.098" stroke="#000" stroke-opacity="0.02" transform="translate(187, -19.666666666667)" /><polyline points="17, 0, 34, 19.666666666667, 17, 39.333333333333, 0, 19.666666666667" fill="#222" fill-opacity="0.098" stroke="#000" stroke-opacity="0.02" transform="translate(-17, 98.333333333333)" /><polyline points="17, 0, 34, 19.666666666667, 17, 39.333333333333, 0, 19.666666666667" fill="#222" fill-opacity="0.098" stroke="#000" stroke-opacity="0.02" transform="translate(187, 98.333333333333)" /><polyline points="17, 0, 34, 19.666666666667, 17, 39.333333333333, 0, 19.666666666667" fill="#222" fill-opacity="0.11533333333333" stroke="#000" stroke-opacity="0.02" transform="translate(17, -19.666666666667)" /><polyline points="17, 0, 34, 19.666666666667, 17, 39.333333333333, 0, 19.666666666667" fill="#222" fill-opacity="0.11533333333333" stroke="#000" stroke-opacity="0.02" transform="translate(17, 98.333333333333)" /><polyline points="17, 0, 34, 19.666666666667, 17, 39.333333333333, 0, 19.666666666667" fill="#222" fill-opacity="0.13266666666667" stroke="#000" stroke-opacity="0.02" transform="translate(51, -19.666666666667)" /><polyline points="17, 0, 34, 19.666666666667, 17, 39.333333333333, 0, 19.666666666667" fill="#222" fill-opacity="0.13266666666667" stroke="#000" stroke-opacity="0.02" transform="translate(51, 98.333333333333)" /><polyline points="17, 0, 34, 19.666666666667, 17, 39.333333333333, 0, 19.666666666667" fill="#ddd" fill-opacity="0.089333333333333" stroke="#000" stroke-opacity="0.02" transform="translate(85, -19.666666666667)" /><polyline points="17, 0, 34, 19.666666666667, 17, 39.333333333333, 0, 19.666666666667" fill="#ddd" fill-opacity="0.089333333333333" stroke="#000" stroke-opacity="0.02" transform="translate(85, 98.333333333333)" /><polyline points="17, 0, 34, 19.666666666667, 17, 39.333333333333, 0, 19.666666666667" fill="#ddd" fill-opacity="0.02" stroke="#000" stroke-opacity="0.02" transform="translate(119, -19.666666666667)" /><polyline points="17, 0, 34, 19.666666666667, 17, 39.333333333333, 0, 19.666666666667" fill="#ddd" fill-opacity="0.02" stroke="#000" stroke-opacity="0.02" transform="translate(119, 98.333333333333)" /><polyline points="17, 0, 34, 19.666666666667, 17, 39.333333333333, 0, 19.666666666667" fill="#ddd" fill-opacity="0.14133333333333" stroke="#000" stroke-opacity="0.02" transform="translate(153, -19.666666666667)" /><polyline points="17, 0, 34, 19.666666666667, 17, 39.333333333333, 0, 19.666666666667" fill="#ddd" fill-opacity="0.14133333333333" stroke="#000" stroke-opacity="0.02" transform="translate(153, 98.333333333333)" /><polyline points="17, 0, 34, 19.666666666667, 17, 39.333333333333, 0, 19.666666666667" fill="#ddd" fill-opacity="0.02" stroke="#000" stroke-opacity="0.02" transform="translate(0, 0)" /><polyline points="17, 0, 34, 19.666666666667, 17, 39.333333333333, 0, 19.666666666667" fill="#ddd" fill-opacity="0.02" stroke="#000" stroke-opacity="0.02" transform="translate(204, 0)" /><polyline points="17, 0, 34, 19.666666666667, 17, 39.333333333333, 0, 19.666666666667" fill="#ddd" fill-opacity="0.089333333333333" stroke="#000" stroke-opacity="0.02" transform="translate(34, 0)" /><polyline points="17, 0, 34, 19.666666666667, 17, 39.333333333333, 0, 19.666666666667" fill="#222" fill-opacity="0.11533333333333" stroke="#000" stroke-opacity="0.02" transform="translate(68, 0)" /><polyline points="17, 0, 34, 19.666666666667, 17, 39.333333333333, 0, 19.666666666667" fill="#ddd" fill-opacity="0.10666666666667" stroke="#000" stroke-opacity="0.02" transform="translate(102, 0)" /><polyline points="17, 0, 34, 19.666666666667, 17, 39.333333333333, 0, 19.666666666667" fill="#ddd" fill-opacity="0.054666666666667" stroke="#000" stroke-opacity="0.02" transform="translate(136, 0)" /><polyline points="17, 0, 34, 19.666666666667, 17, 39.333333333333, 0, 19.666666666667" fill="#222" fill-opacity="0.080666666666667" stroke="#000" stroke-opacity="0.02" transform="translate(170, 0)" /><polyline points="17, 0, 34, 19.666666666667, 17, 39.333333333333, 0, 19.666666666667" fill="#222" fill-opacity="0.028666666666667" stroke="#000" stroke-opacity="0.02" transform="translate(-17, 19.666666666667)" /><polyline points="17, 0, 34, 19.666666666667, 17, 39.333333333333, 0, 19.666666666667" fill="#222" fill-opacity="0.028666666666667" stroke="#000" stroke-opacity="0.02" transform="translate(187, 19.666666666667)" /><polyline points="17, 0, 34, 19.666666666667, 17, 39.333333333333, 0, 19.666666666667" fill="#222" fill-opacity="0.13266666666667" stroke="#000" stroke-opacity="0.02" transform="translate(17, 19.666666666667)" /><polyline points="17, 0, 34, 19.666666666667, 17, 39.333333333333, 0, 19.666666666667" fill="#ddd" fill-opacity="0.072" stroke="#000" stroke-opacity="0.02" transform="translate(51, 19.666666666667)" /><polyline points="17, 0, 34, 19.666666666667, 17, 39.333333333333, 0, 19.666666666667" fill="#ddd" fill-opacity="0.037333333333333" stroke="#000" stroke-opacity="0.02" transform="translate(85, 19.666666666667)" /><polyline points="17, 0, 34, 19.666666666667, 17, 39.333333333333, 0, 19.666666666667" fill="#ddd" fill-opacity="0.072" stroke="#000" stroke-opacity="0.02" transform="translate(119, 19.666666666667)" /><polyline points="17, 0, 34, 19.666666666667, 17, 39.333333333333, 0, 19.666666666667" fill="#ddd" fill-opacity="0.10666666666667" stroke="#000" stroke-opacity="0.02" transform="translate(153, 19.666666666667)" /><polyline points="17, 0, 34, 19.666666666667, 17, 39.333333333333, 0, 19.666666666667" fill="#222" fill-opacity="0.15" stroke="#000" stroke-opacity="0.02" transform="translate(0, 39.333333333333)" /><polyline points="17, 0, 34, 19.666666666667, 17, 39.333333333333, 0, 19.666666666667" fill="#222" fill-opacity="0.15" stroke="#000" stroke-opacity="0.02" transform="translate(204, 39.333333333333)" /><polyline points="17, 0, 34, 19.666666666667, 17, 39.333333333333, 0, 19.666666666667" fill="#222" fill-opacity="0.098" stroke="#000" stroke-opacity="0.02" transform="translate(34, 39.333333333333)" /><polyline points="17, 0, 34, 19.666666666667, 17, 39.333333333333, 0, 19.666666666667" fill="#222" fill-opacity="0.11533333333333" stroke="#000" stroke-opacity="0.02" transform="translate(68, 39.333333333333)" /><polyline points="17, 0, 34, 19.666666666667, 17, 39.333333333333, 0, 19.666666666667" fill="#ddd" fill-opacity="0.124" stroke="#000" stroke-opacity="0.02" transform="translate(102, 39.333333333333)" /><polyline points="17, 0, 34, 19.666666666667, 17, 39.333333333333, 0, 19.666666666667" fill="#ddd" fill-opacity="0.054666666666667" stroke="#000" stroke-opacity="0.02" transform="translate(136, 39.333333333333)" /><polyline points="17, 0, 34, 19.666666666667, 17, 39.333333333333, 0, 19.666666666667" fill="#ddd" fill-opacity="0.089333333333333" stroke="#000" stroke-opacity="0.02" transform="translate(170, 39.333333333333)" /><polyline points="17, 0, 34, 19.666666666667, 17, 39.333333333333, 0, 19.666666666667" fill="#222" fill-opacity="0.080666666666667" stroke="#000" stroke-opacity="0.02" transform="translate(-17, 59)" /><polyline points="17, 0, 34, 19.666666666667, 17, 39.333333333333, 0, 19.666666666667" fill="#222" fill-opacity="0.080666666666667" stroke="#000" stroke-opacity="0.02" transform="translate(187, 59)" /><polyline points="17, 0, 34, 19.666666666667, 17, 39.333333333333, 0, 19.666666666667" fill="#222" fill-opacity="0.13266666666667" stroke="#000" stroke-opacity="0.02" transform="translate(17, 59)" /><polyline points="17, 0, 34, 19.666666666667, 17, 39.333333333333, 0, 19.666666666667" fill="#ddd" fill-opacity="0.089333333333333" stroke="#000" stroke-opacity="0.02" transform="translate(51, 59)" /><polyline points="17, 0, 34, 19.666666666667, 17, 39.333333333333, 0, 19.666666666667" fill="#ddd" fill-opacity="0.089333333333333" stroke="#000" stroke-opacity="0.02" transform="translate(85, 59)" /><polyline points="17, 0, 34, 19.666666666667, 17, 39.333333333333, 0, 19.666666666667" fill="#ddd" fill-opacity="0.124" stroke="#000" stroke-opacity="0.02" transform="translate(119, 59)" /><polyline points="17, 0, 34, 19.666666666667, 17, 39.333333333333, 0, 19.666666666667" fill="#222" fill-opacity="0.13266666666667" stroke="#000" stroke-opacity="0.02" transform="translate(153, 59)" /><polyline points="17, 0, 34, 19.666666666667, 17, 39.333333333333, 0, 19.666666666667" fill="#ddd" fill-opacity="0.037333333333333" stroke="#000" stroke-opacity="0.02" transform="translate(0, 78.666666666667)" /><polyline points="17, 0, 34, 19.666666666667, 17, 39.333333333333, 0, 19.666666666667" fill="#ddd" fill-opacity="0.037333333333333" stroke="#000" stroke-opacity="0.02" transform="translate(204, 78.666666666667)" /><polyline points="17, 0, 34, 19.666666666667, 17, 39.333333333333, 0, 19.666666666667" fill="#222" fill-opacity="0.046" stroke="#000" stroke-opacity="0.02" transform="translate(34, 78.666666666667)" /><polyline points="17, 0, 34, 19.666666666667, 17, 39.333333333333, 0, 19.666666666667" fill="#222" fill-opacity="0.080666666666667" stroke="#000" stroke-opacity="0.02" transform="translate(68, 78.666666666667)" /><polyline points="17, 0, 34, 19.666666666667, 17, 39.333333333333, 0, 19.666666666667" fill="#ddd" fill-opacity="0.02" stroke="#000" stroke-opacity="0.02" transform="translate(102, 78.666666666667)" /><polyline points="17, 0, 34, 19.666666666667, 17, 39.333333333333, 0, 19.666666666667" fill="#ddd" fill-opacity="0.037333333333333" stroke="#000" stroke-opacity="0.02" transform="translate(136, 78.666666666667)" /><polyline points="17, 0, 34, 19.666666666667, 17, 39.333333333333, 0, 19.666666666667" fill="#ddd" fill-opacity="0.072" stroke="#000" stroke-opacity="0.02" transform="translate(170, 78.666666666667)" /></svg>